<svg xmlns="http://www.w3.org/2000/svg" viewBox="0 0 900 550" width="900" height="550">
  <defs>
    <linearGradient id="bgGrad1" x1="0%" y1="0%" x2="100%" y2="100%">
      <stop offset="0%" style="stop-color:#f8fdf5"/>
      <stop offset="50%" style="stop-color:#e8f5e9"/>
      <stop offset="100%" style="stop-color:#f1f8e9"/>
    </linearGradient>
    <linearGradient id="greenMain" x1="0%" y1="0%" x2="100%" y2="0%">
      <stop offset="0%" style="stop-color:#33691e"/>
      <stop offset="50%" style="stop-color:#558b2f"/>
      <stop offset="100%" style="stop-color:#33691e"/>
    </linearGradient>
    <linearGradient id="greenLight" x1="0%" y1="0%" x2="100%" y2="0%">
      <stop offset="0%" style="stop-color:#7cb342"/>
      <stop offset="100%" style="stop-color:#8bc34a"/>
    </linearGradient>
    <linearGradient id="titleGrad" x1="0%" y1="0%" x2="100%" y2="100%">
      <stop offset="0%" style="stop-color:#33691e"/>
      <stop offset="100%" style="stop-color:#1b5e20"/>
    </linearGradient>
    <filter id="shadow" x="-20%" y="-20%" width="140%" height="140%">
      <feDropShadow dx="2" dy="2" stdDeviation="3" flood-color="#33691e" flood-opacity="0.3"/>
    </filter>
    <pattern id="gridPattern" width="25" height="25" patternUnits="userSpaceOnUse">
      <path d="M 25 0 L 0 0 0 25" fill="none" stroke="#7cb342" stroke-width="0.5" opacity="0.3"/>
    </pattern>
    <pattern id="hatchGreen" width="6" height="6" patternUnits="userSpaceOnUse">
      <path d="M0,0 l6,6 M6,0 l-6,6" stroke="#7cb342" stroke-width="0.4" opacity="0.3"/>
    </pattern>
  </defs>
  
  <rect width="100%" height="100%" fill="url(#bgGrad1)"/>
  <rect width="100%" height="100%" fill="url(#gridPattern)"/>
  
  <rect x="15" y="15" width="870" height="520" fill="none" stroke="url(#greenMain)" stroke-width="3" filter="url(#shadow)" rx="5"/>
  <rect x="22" y="22" width="856" height="506" fill="none" stroke="#7cb342" stroke-width="1" opacity="0.6" rx="3"/>
  
  <rect x="595" y="445" width="270" height="80" fill="#ffffff" stroke="url(#titleGrad)" stroke-width="2" filter="url(#shadow)"/>
  <rect x="595" y="445" width="270" height="25" fill="url(#titleGrad)"/>
  <line x1="595" y1="495" x2="865" y2="495" stroke="#7cb342" stroke-width="0.5"/>
  <text x="730" y="462" text-anchor="middle" font-family="Arial, sans-serif" font-size="12" fill="#ffffff" font-weight="bold">INDUSTRIAL FACTORY FLOOR PLAN</text>
  <text x="730" y="485" text-anchor="middle" font-family="Arial, sans-serif" font-size="9" fill="#33691e" font-weight="bold">HONESTY ENGINEERING CONSULTANCY</text>
  <text x="640" y="510" font-family="Arial, sans-serif" font-size="8" fill="#558b2f">SCALE: 1:200</text>
  <text x="780" y="510" font-family="Arial, sans-serif" font-size="8" fill="#558b2f">DWG: HE-2024-001</text>
  
  <g transform="translate(45, 45)">
    <rect x="0" y="0" width="530" height="390" fill="#ffffff" stroke="url(#greenMain)" stroke-width="2.5" filter="url(#shadow)" rx="3"/>
    
    <rect x="10" y="10" width="305" height="245" fill="url(#hatchGreen)" stroke="#33691e" stroke-width="2"/>
    <text x="162" y="115" text-anchor="middle" font-family="Arial, sans-serif" font-size="16" fill="#33691e" font-weight="bold">PRODUCTION HALL</text>
    <text x="162" y="138" text-anchor="middle" font-family="Arial, sans-serif" font-size="11" fill="#558b2f">30.0m × 24.0m = 720 m²</text>
    <circle cx="85" cy="75" r="22" fill="#e8f5e9" stroke="#7cb342" stroke-width="1.5" stroke-dasharray="4,2"/>
    <text x="85" y="79" text-anchor="middle" font-family="Arial, sans-serif" font-size="7" fill="#558b2f">M1</text>
    <circle cx="162" cy="75" r="22" fill="#e8f5e9" stroke="#7cb342" stroke-width="1.5" stroke-dasharray="4,2"/>
    <text x="162" y="79" text-anchor="middle" font-family="Arial, sans-serif" font-size="7" fill="#558b2f">M2</text>
    <circle cx="240" cy="75" r="22" fill="#e8f5e9" stroke="#7cb342" stroke-width="1.5" stroke-dasharray="4,2"/>
    <text x="240" y="79" text-anchor="middle" font-family="Arial, sans-serif" font-size="7" fill="#558b2f">M3</text>
    <rect x="65" y="165" width="60" height="40" fill="#f1f8e9" stroke="#7cb342" stroke-width="1"/>
    <rect x="145" y="165" width="60" height="40" fill="#f1f8e9" stroke="#7cb342" stroke-width="1"/>
    <rect x="225" y="165" width="60" height="40" fill="#f1f8e9" stroke="#7cb342" stroke-width="1"/>
    <text x="95" y="190" text-anchor="middle" font-family="Arial, sans-serif" font-size="7" fill="#558b2f">WS-1</text>
    <text x="175" y="190" text-anchor="middle" font-family="Arial, sans-serif" font-size="7" fill="#558b2f">WS-2</text>
    <text x="255" y="190" text-anchor="middle" font-family="Arial, sans-serif" font-size="7" fill="#558b2f">WS-3</text>
    
    <rect x="325" y="10" width="195" height="125" fill="#f8fdf5" stroke="#33691e" stroke-width="2"/>
    <text x="422" y="55" text-anchor="middle" font-family="Arial, sans-serif" font-size="14" fill="#33691e" font-weight="bold">QC LABORATORY</text>
    <text x="422" y="75" text-anchor="middle" font-family="Arial, sans-serif" font-size="10" fill="#558b2f">19.0m × 12.0m</text>
    <rect x="345" y="90" width="35" height="25" fill="#e8f5e9" stroke="#7cb342" stroke-width="1"/>
    <rect x="390" y="90" width="35" height="25" fill="#e8f5e9" stroke="#7cb342" stroke-width="1"/>
    <rect x="435" y="90" width="35" height="25" fill="#e8f5e9" stroke="#7cb342" stroke-width="1"/>
    <rect x="480" y="90" width="30" height="25" fill="#e8f5e9" stroke="#7cb342" stroke-width="1"/>
    
    <rect x="325" y="145" width="95" height="110" fill="#f8fdf5" stroke="#33691e" stroke-width="1.5"/>
    <text x="372" y="195" text-anchor="middle" font-family="Arial, sans-serif" font-size="13" fill="#33691e" font-weight="bold">ADMIN</text>
    <text x="372" y="212" text-anchor="middle" font-family="Arial, sans-serif" font-size="9" fill="#558b2f">9.0m × 11.0m</text>
    
    <rect x="430" y="145" width="90" height="55" fill="#dcedc8" stroke="#558b2f" stroke-width="1.5"/>
    <text x="475" y="175" text-anchor="middle" font-family="Arial, sans-serif" font-size="11" fill="#33691e" font-weight="bold">SERVER</text>
    
    <rect x="430" y="210" width="90" height="45" fill="#f8fdf5" stroke="#33691e" stroke-width="1.5"/>
    <text x="475" y="237" text-anchor="middle" font-family="Arial, sans-serif" font-size="11" fill="#33691e">MEETING</text>
    <ellipse cx="475" cy="232" rx="28" ry="12" fill="none" stroke="#9e9e9e" stroke-width="1"/>
    
    <rect x="10" y="265" width="205" height="115" fill="#f1f8e9" stroke="#33691e" stroke-width="2"/>
    <text x="112" y="315" text-anchor="middle" font-family="Arial, sans-serif" font-size="14" fill="#33691e" font-weight="bold">WAREHOUSE</text>
    <text x="112" y="335" text-anchor="middle" font-family="Arial, sans-serif" font-size="10" fill="#558b2f">20.0m × 11.0m = 220 m²</text>
    <line x1="35" y1="285" x2="35" y2="360" stroke="#bdbdbd" stroke-width="3"/>
    <line x1="65" y1="285" x2="65" y2="360" stroke="#bdbdbd" stroke-width="3"/>
    <line x1="95" y1="285" x2="95" y2="360" stroke="#bdbdbd" stroke-width="3"/>
    <line x1="125" y1="285" x2="125" y2="360" stroke="#bdbdbd" stroke-width="3"/>
    <line x1="155" y1="285" x2="155" y2="360" stroke="#bdbdbd" stroke-width="3"/>
    <line x1="185" y1="285" x2="185" y2="360" stroke="#bdbdbd" stroke-width="3"/>
    
    <rect x="225" y="265" width="100" height="115" fill="#c5e1a5" stroke="#558b2f" stroke-width="2"/>
    <text x="275" y="315" text-anchor="middle" font-family="Arial, sans-serif" font-size="12" fill="#33691e" font-weight="bold">LOADING</text>
    <text x="275" y="332" text-anchor="middle" font-family="Arial, sans-serif" font-size="12" fill="#33691e" font-weight="bold">DOCK</text>
    <rect x="240" y="350" width="30" height="22" fill="#ffffff" stroke="#7cb342" stroke-width="1"/>
    <rect x="280" y="350" width="30" height="22" fill="#ffffff" stroke="#7cb342" stroke-width="1"/>
    
    <rect x="335" y="265" width="85" height="55" fill="#f8fdf5" stroke="#33691e" stroke-width="1.5"/>
    <text x="377" y="297" text-anchor="middle" font-family="Arial, sans-serif" font-size="11" fill="#33691e">UTILITY</text>
    
    <rect x="430" y="265" width="45" height="55" fill="#e3f2fd" stroke="#558b2f" stroke-width="1.5"/>
    <text x="452" y="297" text-anchor="middle" font-family="Arial, sans-serif" font-size="10" fill="#33691e">M</text>
    <rect x="485" y="265" width="35" height="55" fill="#fce4ec" stroke="#558b2f" stroke-width="1.5"/>
    <text x="502" y="297" text-anchor="middle" font-family="Arial, sans-serif" font-size="10" fill="#33691e">F</text>
    
    <rect x="335" y="330" width="85" height="50" fill="#ffebee" stroke="#c62828" stroke-width="2"/>
    <text x="377" y="360" text-anchor="middle" font-family="Arial, sans-serif" font-size="10" fill="#c62828" font-weight="bold">EMERGENCY</text>
    
    <rect x="430" y="330" width="90" height="50" fill="#ffcdd2" stroke="#c62828" stroke-width="1.5"/>
    <text x="475" y="352" text-anchor="middle" font-family="Arial, sans-serif" font-size="10" fill="#c62828" font-weight="bold">FIRE STAIRS</text>
    <line x1="445" y1="360" x2="505" y2="360" stroke="#c62828" stroke-width="0.8"/>
    <line x1="445" y1="366" x2="505" y2="366" stroke="#c62828" stroke-width="0.8"/>
    <line x1="445" y1="372" x2="505" y2="372" stroke="#c62828" stroke-width="0.8"/>
    
    <g stroke="#33691e" stroke-width="2.5">
      <path d="M 85,390 L 85,397 A 18,18 0 0 1 103,390" fill="none"/>
      <path d="M 265,390 L 265,397 A 18,18 0 0 1 283,390" fill="none"/>
      <path d="M 360,390 L 360,397 A 18,18 0 0 1 378,390" fill="none"/>
    </g>
  </g>
  
  <g stroke="#33691e" stroke-width="1" fill="#33691e" font-family="Arial, sans-serif" font-size="9">
    <line x1="45" y1="450" x2="575" y2="450"/>
    <line x1="45" y1="444" x2="45" y2="456"/>
    <line x1="575" y1="444" x2="575" y2="456"/>
    <text x="310" y="465" text-anchor="middle" font-weight="bold">52.0 m</text>
    <line x1="592" y1="45" x2="592" y2="435"/>
    <line x1="586" y1="45" x2="598" y2="45"/>
    <line x1="586" y1="435" x2="598" y2="435"/>
    <text x="605" y="245" transform="rotate(90, 605, 245)" text-anchor="middle" font-weight="bold">38.0 m</text>
  </g>
  
  <g transform="translate(830, 75)">
    <circle cx="0" cy="0" r="28" fill="#ffffff" stroke="url(#titleGrad)" stroke-width="2" filter="url(#shadow)"/>
    <polygon points="0,-22 -9,12 0,6 9,12" fill="url(#titleGrad)"/>
    <text x="0" y="-32" text-anchor="middle" font-family="Arial, sans-serif" font-size="14" fill="#33691e" font-weight="bold">N</text>
  </g>
  
  <g transform="translate(620, 55)">
    <rect x="-5" y="-15" width="120" height="95" fill="#ffffff" stroke="#7cb342" stroke-width="1" rx="3"/>
    <text x="0" y="0" font-family="Arial, sans-serif" font-size="11" fill="#33691e" font-weight="bold">LEGEND:</text>
    <rect x="0" y="10" width="18" height="10" fill="url(#hatchGreen)" stroke="#33691e" stroke-width="0.8"/>
    <text x="24" y="18" font-family="Arial, sans-serif" font-size="9" fill="#33691e">Production Zone</text>
    <rect x="0" y="28" width="18" height="10" fill="#c5e1a5" stroke="#558b2f" stroke-width="0.8"/>
    <text x="24" y="36" font-family="Arial, sans-serif" font-size="9" fill="#558b2f">Loading Area</text>
    <rect x="0" y="46" width="18" height="10" fill="#ffcdd2" stroke="#c62828" stroke-width="0.8"/>
    <text x="24" y="54" font-family="Arial, sans-serif" font-size="9" fill="#c62828">Fire Safety</text>
    <circle cx="9" cy="70" r="6" fill="#e8f5e9" stroke="#7cb342" stroke-width="0.8"/>
    <text x="24" y="74" font-family="Arial, sans-serif" font-size="9" fill="#7cb342">Machinery</text>
  </g>
  
  <g transform="translate(620, 175)">
    <rect x="-5" y="-15" width="120" height="105" fill="#ffffff" stroke="#7cb342" stroke-width="1" rx="3"/>
    <text x="0" y="0" font-family="Arial, sans-serif" font-size="11" fill="#33691e" font-weight="bold">AREA SUMMARY:</text>
    <text x="0" y="18" font-family="Arial, sans-serif" font-size="9" fill="#616161">Production: 720 m²</text>
    <text x="0" y="33" font-family="Arial, sans-serif" font-size="9" fill="#616161">Warehouse: 220 m²</text>
    <text x="0" y="48" font-family="Arial, sans-serif" font-size="9" fill="#616161">Admin: 99 m²</text>
    <text x="0" y="63" font-family="Arial, sans-serif" font-size="9" fill="#616161">Other: 137 m²</text>
    <line x1="0" y1="70" x2="100" y2="70" stroke="#7cb342" stroke-width="1"/>
    <text x="0" y="85" font-family="Arial, sans-serif" font-size="10" fill="#33691e" font-weight="bold">TOTAL: 1,176 m²</text>
  </g>
</svg>