<svg xmlns="http://www.w3.org/2000/svg" viewBox="0 0 900 550" width="900" height="550">
  <defs>
    <linearGradient id="bgGrad2" x1="0%" y1="0%" x2="100%" y2="100%">
      <stop offset="0%" style="stop-color:#f8fdf5"/>
      <stop offset="50%" style="stop-color:#e8f5e9"/>
      <stop offset="100%" style="stop-color:#f1f8e9"/>
    </linearGradient>
    <linearGradient id="greenMain2" x1="0%" y1="0%" x2="100%" y2="0%">
      <stop offset="0%" style="stop-color:#33691e"/>
      <stop offset="50%" style="stop-color:#558b2f"/>
      <stop offset="100%" style="stop-color:#33691e"/>
    </linearGradient>
    <linearGradient id="blueElec" x1="0%" y1="0%" x2="100%" y2="0%">
      <stop offset="0%" style="stop-color:#0277bd"/>
      <stop offset="100%" style="stop-color:#039be5"/>
    </linearGradient>
    <linearGradient id="orangeWarn" x1="0%" y1="0%" x2="100%" y2="0%">
      <stop offset="0%" style="stop-color:#e65100"/>
      <stop offset="100%" style="stop-color:#ff8f00"/>
    </linearGradient>
    <filter id="shadow2" x="-20%" y="-20%" width="140%" height="140%">
      <feDropShadow dx="2" dy="2" stdDeviation="3" flood-color="#33691e" flood-opacity="0.25"/>
    </filter>
    <pattern id="gridElec" width="20" height="20" patternUnits="userSpaceOnUse">
      <path d="M 20 0 L 0 0 0 20" fill="none" stroke="#7cb342" stroke-width="0.5" opacity="0.25"/>
    </pattern>
  </defs>
  
  <rect width="100%" height="100%" fill="url(#bgGrad2)"/>
  <rect width="100%" height="100%" fill="url(#gridElec)"/>
  
  <rect x="15" y="15" width="870" height="520" fill="none" stroke="url(#greenMain2)" stroke-width="3" filter="url(#shadow2)" rx="5"/>
  <rect x="22" y="22" width="856" height="506" fill="none" stroke="#7cb342" stroke-width="1" opacity="0.5" rx="3"/>
  
  <rect x="595" y="445" width="270" height="80" fill="#ffffff" stroke="#0277bd" stroke-width="2" filter="url(#shadow2)"/>
  <rect x="595" y="445" width="270" height="25" fill="url(#blueElec)"/>
  <line x1="595" y1="495" x2="865" y2="495" stroke="#0277bd" stroke-width="0.5"/>
  <text x="730" y="462" text-anchor="middle" font-family="Arial, sans-serif" font-size="12" fill="#ffffff" font-weight="bold">ELECTRICAL &amp; WIRING LAYOUT</text>
  <text x="730" y="485" text-anchor="middle" font-family="Arial, sans-serif" font-size="9" fill="#33691e" font-weight="bold">HONESTY ENGINEERING CONSULTANCY</text>
  <text x="640" y="510" font-family="Arial, sans-serif" font-size="8" fill="#0277bd">SCALE: 1:150</text>
  <text x="780" y="510" font-family="Arial, sans-serif" font-size="8" fill="#0277bd">DWG: HE-ELEC-002</text>
  
  <g transform="translate(40, 42)">
    <rect x="0" y="0" width="540" height="395" fill="#ffffff" stroke="url(#greenMain2)" stroke-width="2.5" filter="url(#shadow2)" rx="3"/>
    
    <rect x="10" y="10" width="180" height="120" fill="#f8fdf5" stroke="#33691e" stroke-width="1.5"/>
    <text x="100" y="50" text-anchor="middle" font-family="Arial, sans-serif" font-size="12" fill="#33691e" font-weight="bold">MAIN OFFICE</text>
    <text x="100" y="68" text-anchor="middle" font-family="Arial, sans-serif" font-size="9" fill="#558b2f">18.0m × 12.0m</text>
    <circle cx="45" cy="30" r="5" fill="#fff9c4" stroke="#e65100" stroke-width="2"/>
    <circle cx="100" cy="30" r="5" fill="#fff9c4" stroke="#e65100" stroke-width="2"/>
    <circle cx="155" cy="30" r="5" fill="#fff9c4" stroke="#e65100" stroke-width="2"/>
    <circle cx="70" cy="95" r="5" fill="#fff9c4" stroke="#e65100" stroke-width="2"/>
    <circle cx="130" cy="95" r="5" fill="#fff9c4" stroke="#e65100" stroke-width="2"/>
    <rect x="160" y="100" width="18" height="18" fill="#e3f2fd" stroke="#0277bd" stroke-width="1.5"/>
    <text x="169" y="113" text-anchor="middle" font-family="Arial, sans-serif" font-size="7" fill="#0277bd">SW</text>
    
    <rect x="200" y="10" width="160" height="120" fill="#f8fdf5" stroke="#33691e" stroke-width="1.5"/>
    <text x="280" y="50" text-anchor="middle" font-family="Arial, sans-serif" font-size="12" fill="#33691e" font-weight="bold">CONFERENCE</text>
    <text x="280" y="68" text-anchor="middle" font-family="Arial, sans-serif" font-size="9" fill="#558b2f">16.0m × 12.0m</text>
    <circle cx="230" cy="30" r="5" fill="#fff9c4" stroke="#e65100" stroke-width="2"/>
    <circle cx="280" cy="30" r="5" fill="#fff9c4" stroke="#e65100" stroke-width="2"/>
    <circle cx="330" cy="30" r="5" fill="#fff9c4" stroke="#e65100" stroke-width="2"/>
    <circle cx="255" cy="75" r="5" fill="#fff9c4" stroke="#e65100" stroke-width="2"/>
    <circle cx="305" cy="75" r="5" fill="#fff9c4" stroke="#e65100" stroke-width="2"/>
    <rect x="335" y="100" width="18" height="18" fill="#e3f2fd" stroke="#0277bd" stroke-width="1.5"/>
    <text x="344" y="113" text-anchor="middle" font-family="Arial, sans-serif" font-size="7" fill="#0277bd">SW</text>
    
    <rect x="370" y="10" width="160" height="180" fill="#ffebee" stroke="#c62828" stroke-width="2"/>
    <text x="450" y="55" text-anchor="middle" font-family="Arial, sans-serif" font-size="13" fill="#c62828" font-weight="bold">SERVER ROOM</text>
    <text x="450" y="73" text-anchor="middle" font-family="Arial, sans-serif" font-size="9" fill="#558b2f">16.0m × 18.0m</text>
    <text x="450" y="88" text-anchor="middle" font-family="Arial, sans-serif" font-size="8" fill="#c62828">DEDICATED 3-PHASE</text>
    <rect x="385" y="105" width="28" height="38" fill="#e3f2fd" stroke="#0277bd" stroke-width="1.5"/>
    <rect x="422" y="105" width="28" height="38" fill="#e3f2fd" stroke="#0277bd" stroke-width="1.5"/>
    <rect x="459" y="105" width="28" height="38" fill="#e3f2fd" stroke="#0277bd" stroke-width="1.5"/>
    <rect x="496" y="105" width="28" height="38" fill="#e3f2fd" stroke="#0277bd" stroke-width="1.5"/>
    <text x="399" y="158" text-anchor="middle" font-family="Arial, sans-serif" font-size="7" fill="#0277bd">UPS1</text>
    <text x="436" y="158" text-anchor="middle" font-family="Arial, sans-serif" font-size="7" fill="#0277bd">UPS2</text>
    <text x="473" y="158" text-anchor="middle" font-family="Arial, sans-serif" font-size="7" fill="#0277bd">PDU1</text>
    <text x="510" y="158" text-anchor="middle" font-family="Arial, sans-serif" font-size="7" fill="#0277bd">PDU2</text>
    
    <rect x="10" y="140" width="180" height="115" fill="#f1f8e9" stroke="#33691e" stroke-width="1.5"/>
    <text x="100" y="185" text-anchor="middle" font-family="Arial, sans-serif" font-size="12" fill="#33691e" font-weight="bold">WORKSHOP A</text>
    <text x="100" y="203" text-anchor="middle" font-family="Arial, sans-serif" font-size="9" fill="#558b2f">18.0m × 11.0m</text>
    <circle cx="40" cy="165" r="6" fill="#fff9c4" stroke="#e65100" stroke-width="2"/>
    <circle cx="100" cy="165" r="6" fill="#fff9c4" stroke="#e65100" stroke-width="2"/>
    <circle cx="160" cy="165" r="6" fill="#fff9c4" stroke="#e65100" stroke-width="2"/>
    <circle cx="70" cy="225" r="6" fill="#fff9c4" stroke="#e65100" stroke-width="2"/>
    <circle cx="130" cy="225" r="6" fill="#fff9c4" stroke="#e65100" stroke-width="2"/>
    <rect x="38" y="205" width="22" height="22" fill="#fff3e0" stroke="#e65100" stroke-width="1.5"/>
    <text x="49" y="220" text-anchor="middle" font-family="Arial, sans-serif" font-size="7" fill="#e65100">3φ</text>
    <rect x="145" y="205" width="22" height="22" fill="#fff3e0" stroke="#e65100" stroke-width="1.5"/>
    <text x="156" y="220" text-anchor="middle" font-family="Arial, sans-serif" font-size="7" fill="#e65100">3φ</text>
    
    <rect x="200" y="140" width="160" height="115" fill="#f1f8e9" stroke="#33691e" stroke-width="1.5"/>
    <text x="280" y="185" text-anchor="middle" font-family="Arial, sans-serif" font-size="12" fill="#33691e" font-weight="bold">WORKSHOP B</text>
    <text x="280" y="203" text-anchor="middle" font-family="Arial, sans-serif" font-size="9" fill="#558b2f">16.0m × 11.0m</text>
    <circle cx="230" cy="165" r="6" fill="#fff9c4" stroke="#e65100" stroke-width="2"/>
    <circle cx="280" cy="165" r="6" fill="#fff9c4" stroke="#e65100" stroke-width="2"/>
    <circle cx="330" cy="165" r="6" fill="#fff9c4" stroke="#e65100" stroke-width="2"/>
    <circle cx="255" cy="225" r="6" fill="#fff9c4" stroke="#e65100" stroke-width="2"/>
    <circle cx="305" cy="225" r="6" fill="#fff9c4" stroke="#e65100" stroke-width="2"/>
    <rect x="230" y="205" width="22" height="22" fill="#fff3e0" stroke="#e65100" stroke-width="1.5"/>
    <text x="241" y="220" text-anchor="middle" font-family="Arial, sans-serif" font-size="7" fill="#e65100">3φ</text>
    
    <rect x="370" y="200" width="160" height="55" fill="#e8f5e9" stroke="#33691e" stroke-width="1.2"/>
    <text x="450" y="232" text-anchor="middle" font-family="Arial, sans-serif" font-size="11" fill="#33691e">CORRIDOR</text>
    <circle cx="400" cy="228" r="4" fill="#fff9c4" stroke="#e65100" stroke-width="1.5"/>
    <circle cx="430" cy="228" r="4" fill="#fff9c4" stroke="#e65100" stroke-width="1.5"/>
    <circle cx="460" cy="228" r="4" fill="#fff9c4" stroke="#e65100" stroke-width="1.5"/>
    <circle cx="490" cy="228" r="4" fill="#fff9c4" stroke="#e65100" stroke-width="1.5"/>
    
    <rect x="10" y="265" width="270" height="120" fill="#dcedc8" stroke="#33691e" stroke-width="2"/>
    <text x="145" y="310" text-anchor="middle" font-family="Arial, sans-serif" font-size="14" fill="#33691e" font-weight="bold">PRODUCTION FLOOR</text>
    <text x="145" y="330" text-anchor="middle" font-family="Arial, sans-serif" font-size="9" fill="#558b2f">26.5m × 12.0m</text>
    <circle cx="55" cy="290" r="7" fill="#fff9c4" stroke="#e65100" stroke-width="2"/>
    <circle cx="125" cy="290" r="7" fill="#fff9c4" stroke="#e65100" stroke-width="2"/>
    <circle cx="195" cy="290" r="7" fill="#fff9c4" stroke="#e65100" stroke-width="2"/>
    <circle cx="250" cy="290" r="7" fill="#fff9c4" stroke="#e65100" stroke-width="2"/>
    <circle cx="85" cy="355" r="7" fill="#fff9c4" stroke="#e65100" stroke-width="2"/>
    <circle cx="160" cy="355" r="7" fill="#fff9c4" stroke="#e65100" stroke-width="2"/>
    <circle cx="230" cy="355" r="7" fill="#fff9c4" stroke="#e65100" stroke-width="2"/>
    <rect x="28" y="340" width="28" height="28" fill="#e3f2fd" stroke="#0277bd" stroke-width="2"/>
    <text x="42" y="358" text-anchor="middle" font-family="Arial, sans-serif" font-size="8" fill="#0277bd">MDB</text>
    
    <rect x="290" y="265" width="115" height="120" fill="#fff3e0" stroke="#e65100" stroke-width="2"/>
    <text x="347" y="310" text-anchor="middle" font-family="Arial, sans-serif" font-size="11" fill="#e65100" font-weight="bold">ELECTRICAL</text>
    <text x="347" y="328" text-anchor="middle" font-family="Arial, sans-serif" font-size="11" fill="#e65100" font-weight="bold">ROOM</text>
    <rect x="305" y="345" width="32" height="32" fill="#e3f2fd" stroke="#0277bd" stroke-width="2"/>
    <text x="321" y="365" text-anchor="middle" font-family="Arial, sans-serif" font-size="8" fill="#0277bd">MDP</text>
    <rect x="347" y="345" width="32" height="32" fill="#e3f2fd" stroke="#0277bd" stroke-width="2"/>
    <text x="363" y="365" text-anchor="middle" font-family="Arial, sans-serif" font-size="8" fill="#0277bd">SDB</text>
    
    <rect x="415" y="265" width="115" height="120" fill="#f8fdf5" stroke="#33691e" stroke-width="1.5"/>
    <text x="472" y="310" text-anchor="middle" font-family="Arial, sans-serif" font-size="11" fill="#33691e" font-weight="bold">STORAGE</text>
    <text x="472" y="328" text-anchor="middle" font-family="Arial, sans-serif" font-size="9" fill="#558b2f">12.5m × 12.0m</text>
    <circle cx="445" cy="295" r="5" fill="#fff9c4" stroke="#e65100" stroke-width="2"/>
    <circle cx="500" cy="295" r="5" fill="#fff9c4" stroke="#e65100" stroke-width="2"/>
    <circle cx="472" cy="355" r="5" fill="#fff9c4" stroke="#e65100" stroke-width="2"/>
    
    <g stroke="#0277bd" stroke-width="2.5" fill="none">
      <path d="M 321,377 L 321,395 L 42,395 L 42,368"/>
      <path d="M 348,377 L 348,400 L 241,400 L 241,227"/>
      <path d="M 363,365 L 385,365 L 385,230 L 175,230 L 175,118"/>
      <path d="M 363,350 L 400,350 L 400,195 L 450,195"/>
      <path d="M 363,338 L 450,338 L 450,192"/>
    </g>
  </g>
  
  <g transform="translate(615, 55)">
    <rect x="-5" y="-15" width="130" height="105" fill="#ffffff" stroke="#0277bd" stroke-width="1" rx="3"/>
    <text x="0" y="0" font-family="Arial, sans-serif" font-size="11" fill="#0277bd" font-weight="bold">LEGEND:</text>
    <circle cx="10" cy="20" r="5" fill="#fff9c4" stroke="#e65100" stroke-width="2"/>
    <text x="22" y="24" font-family="Arial, sans-serif" font-size="9" fill="#e65100">LED Light Fixture</text>
    <rect x="4" y="35" width="14" height="14" fill="#e3f2fd" stroke="#0277bd" stroke-width="1"/>
    <text x="22" y="46" font-family="Arial, sans-serif" font-size="9" fill="#0277bd">Switch/Panel</text>
    <line x1="4" y1="60" x2="18" y2="60" stroke="#0277bd" stroke-width="3"/>
    <text x="22" y="64" font-family="Arial, sans-serif" font-size="9" fill="#0277bd">Power Cable</text>
    <line x1="4" y1="78" x2="18" y2="78" stroke="#7cb342" stroke-width="1.5" stroke-dasharray="4,2"/>
    <text x="22" y="82" font-family="Arial, sans-serif" font-size="9" fill="#7cb342">Circuit Line</text>
  </g>
  
  <g transform="translate(615, 185)">
    <rect x="-5" y="-15" width="130" height="125" fill="#ffffff" stroke="#7cb342" stroke-width="1" rx="3"/>
    <text x="0" y="0" font-family="Arial, sans-serif" font-size="11" fill="#33691e" font-weight="bold">LOAD SCHEDULE:</text>
    <text x="0" y="18" font-family="Arial, sans-serif" font-size="9" fill="#616161">Lighting: 45 kW</text>
    <text x="0" y="33" font-family="Arial, sans-serif" font-size="9" fill="#616161">Workshop: 120 kW</text>
    <text x="0" y="48" font-family="Arial, sans-serif" font-size="9" fill="#616161">Server Room: 85 kW</text>
    <text x="0" y="63" font-family="Arial, sans-serif" font-size="9" fill="#616161">Production: 180 kW</text>
    <text x="0" y="78" font-family="Arial, sans-serif" font-size="9" fill="#616161">HVAC: 95 kW</text>
    <line x1="0" y1="85" x2="110" y2="85" stroke="#33691e" stroke-width="1"/>
    <text x="0" y="100" font-family="Arial, sans-serif" font-size="10" fill="#33691e" font-weight="bold">TOTAL: 525 kW</text>
  </g>
  
  <g transform="translate(830, 75)">
    <circle cx="0" cy="0" r="28" fill="#ffffff" stroke="#0277bd" stroke-width="2" filter="url(#shadow2)"/>
    <polygon points="0,-22 -9,12 0,6 9,12" fill="url(#blueElec)"/>
    <text x="0" y="-32" text-anchor="middle" font-family="Arial, sans-serif" font-size="14" fill="#0277bd" font-weight="bold">N</text>
  </g>
  
  <g stroke="#33691e" stroke-width="1" fill="#33691e" font-family="Arial, sans-serif" font-size="9">
    <line x1="40" y1="452" x2="580" y2="452"/>
    <line x1="40" y1="446" x2="40" y2="458"/>
    <line x1="580" y1="446" x2="580" y2="458"/>
    <text x="310" y="467" text-anchor="middle" font-weight="bold">54.0 m</text>
  </g>
</svg>